<?xml version="1.0" encoding="utf-8" standalone="no"?>
<!DOCTYPE svg PUBLIC "-//W3C//DTD SVG 1.1//EN"
  "http://www.w3.org/Graphics/SVG/1.1/DTD/svg11.dtd">
<svg xmlns:xlink="http://www.w3.org/1999/xlink" width="567.01625pt" height="292.051875pt" viewBox="0 0 567.01625 292.051875" xmlns="http://www.w3.org/2000/svg" version="1.1">
 <metadata>
  <rdf:RDF xmlns:dc="http://purl.org/dc/elements/1.1/" xmlns:cc="http://creativecommons.org/ns#" xmlns:rdf="http://www.w3.org/1999/02/22-rdf-syntax-ns#">
   <cc:Work>
    <dc:type rdf:resource="http://purl.org/dc/dcmitype/StillImage"/>
    <dc:date>2024-05-01T15:55:42.026333</dc:date>
    <dc:format>image/svg+xml</dc:format>
    <dc:creator>
     <cc:Agent>
      <dc:title>Matplotlib v3.5.3, https://matplotlib.org/</dc:title>
     </cc:Agent>
    </dc:creator>
   </cc:Work>
  </rdf:RDF>
 </metadata>
 <defs>
  <style type="text/css">*{stroke-linejoin: round; stroke-linecap: butt}</style>
 </defs>
 <g id="figure_1">
  <g id="patch_1">
   <path d="M 0 292.051875 
L 567.01625 292.051875 
L 567.01625 0 
L 0 0 
z
" style="fill: #ffffff"/>
  </g>
  <g id="axes_1">
   <g id="patch_2">
    <path d="M 36.17625 252.56 
L 559.81625 252.56 
L 559.81625 7.2 
L 36.17625 7.2 
z
" style="fill: #e5e5e5"/>
   </g>
   <g id="matplotlib.axis_1">
    <g id="xtick_1">
     <g id="line2d_1">
      <path d="M 36.17625 252.56 
L 36.17625 7.2 
" clip-path="url(#pdae9414633)" style="fill: none; stroke: #ffffff; stroke-width: 0.8; stroke-linecap: square"/>
     </g>
     <g id="line2d_2">
      <defs>
       <path id="mce2575a1f8" d="M 0 0 
L 0 3.5 
" style="stroke: #555555; stroke-width: 0.8"/>
      </defs>
      <g>
       <use xlink:href="#mce2575a1f8" x="36.17625" y="252.56" style="fill: #555555; stroke: #555555; stroke-width: 0.8"/>
      </g>
     </g>
     <g id="text_1">
      <!-- 0 -->
      <g style="fill: #555555" transform="translate(32.995 267.158437)scale(0.1 -0.1)">
       <defs>
        <path id="DejaVuSans-30" d="M 2034 4250 
Q 1547 4250 1301 3770 
Q 1056 3291 1056 2328 
Q 1056 1369 1301 889 
Q 1547 409 2034 409 
Q 2525 409 2770 889 
Q 3016 1369 3016 2328 
Q 3016 3291 2770 3770 
Q 2525 4250 2034 4250 
z
M 2034 4750 
Q 2819 4750 3233 4129 
Q 3647 3509 3647 2328 
Q 3647 1150 3233 529 
Q 2819 -91 2034 -91 
Q 1250 -91 836 529 
Q 422 1150 422 2328 
Q 422 3509 836 4129 
Q 1250 4750 2034 4750 
z
" transform="scale(0.015625)"/>
       </defs>
       <use xlink:href="#DejaVuSans-30"/>
      </g>
     </g>
    </g>
    <g id="xtick_2">
     <g id="line2d_3">
      <path d="M 105.994917 252.56 
L 105.994917 7.2 
" clip-path="url(#pdae9414633)" style="fill: none; stroke: #ffffff; stroke-width: 0.8; stroke-linecap: square"/>
     </g>
     <g id="line2d_4">
      <g>
       <use xlink:href="#mce2575a1f8" x="105.994917" y="252.56" style="fill: #555555; stroke: #555555; stroke-width: 0.8"/>
      </g>
     </g>
     <g id="text_2">
      <!-- 2 -->
      <g style="fill: #555555" transform="translate(102.813667 267.158437)scale(0.1 -0.1)">
       <defs>
        <path id="DejaVuSans-32" d="M 1228 531 
L 3431 531 
L 3431 0 
L 469 0 
L 469 531 
Q 828 903 1448 1529 
Q 2069 2156 2228 2338 
Q 2531 2678 2651 2914 
Q 2772 3150 2772 3378 
Q 2772 3750 2511 3984 
Q 2250 4219 1831 4219 
Q 1534 4219 1204 4116 
Q 875 4013 500 3803 
L 500 4441 
Q 881 4594 1212 4672 
Q 1544 4750 1819 4750 
Q 2544 4750 2975 4387 
Q 3406 4025 3406 3419 
Q 3406 3131 3298 2873 
Q 3191 2616 2906 2266 
Q 2828 2175 2409 1742 
Q 1991 1309 1228 531 
z
" transform="scale(0.015625)"/>
       </defs>
       <use xlink:href="#DejaVuSans-32"/>
      </g>
     </g>
    </g>
    <g id="xtick_3">
     <g id="line2d_5">
      <path d="M 175.813583 252.56 
L 175.813583 7.2 
" clip-path="url(#pdae9414633)" style="fill: none; stroke: #ffffff; stroke-width: 0.8; stroke-linecap: square"/>
     </g>
     <g id="line2d_6">
      <g>
       <use xlink:href="#mce2575a1f8" x="175.813583" y="252.56" style="fill: #555555; stroke: #555555; stroke-width: 0.8"/>
      </g>
     </g>
     <g id="text_3">
      <!-- 4 -->
      <g style="fill: #555555" transform="translate(172.632333 267.158437)scale(0.1 -0.1)">
       <defs>
        <path id="DejaVuSans-34" d="M 2419 4116 
L 825 1625 
L 2419 1625 
L 2419 4116 
z
M 2253 4666 
L 3047 4666 
L 3047 1625 
L 3713 1625 
L 3713 1100 
L 3047 1100 
L 3047 0 
L 2419 0 
L 2419 1100 
L 313 1100 
L 313 1709 
L 2253 4666 
z
" transform="scale(0.015625)"/>
       </defs>
       <use xlink:href="#DejaVuSans-34"/>
      </g>
     </g>
    </g>
    <g id="xtick_4">
     <g id="line2d_7">
      <path d="M 245.63225 252.56 
L 245.63225 7.2 
" clip-path="url(#pdae9414633)" style="fill: none; stroke: #ffffff; stroke-width: 0.8; stroke-linecap: square"/>
     </g>
     <g id="line2d_8">
      <g>
       <use xlink:href="#mce2575a1f8" x="245.63225" y="252.56" style="fill: #555555; stroke: #555555; stroke-width: 0.8"/>
      </g>
     </g>
     <g id="text_4">
      <!-- 6 -->
      <g style="fill: #555555" transform="translate(242.451 267.158437)scale(0.1 -0.1)">
       <defs>
        <path id="DejaVuSans-36" d="M 2113 2584 
Q 1688 2584 1439 2293 
Q 1191 2003 1191 1497 
Q 1191 994 1439 701 
Q 1688 409 2113 409 
Q 2538 409 2786 701 
Q 3034 994 3034 1497 
Q 3034 2003 2786 2293 
Q 2538 2584 2113 2584 
z
M 3366 4563 
L 3366 3988 
Q 3128 4100 2886 4159 
Q 2644 4219 2406 4219 
Q 1781 4219 1451 3797 
Q 1122 3375 1075 2522 
Q 1259 2794 1537 2939 
Q 1816 3084 2150 3084 
Q 2853 3084 3261 2657 
Q 3669 2231 3669 1497 
Q 3669 778 3244 343 
Q 2819 -91 2113 -91 
Q 1303 -91 875 529 
Q 447 1150 447 2328 
Q 447 3434 972 4092 
Q 1497 4750 2381 4750 
Q 2619 4750 2861 4703 
Q 3103 4656 3366 4563 
z
" transform="scale(0.015625)"/>
       </defs>
       <use xlink:href="#DejaVuSans-36"/>
      </g>
     </g>
    </g>
    <g id="xtick_5">
     <g id="line2d_9">
      <path d="M 315.450917 252.56 
L 315.450917 7.2 
" clip-path="url(#pdae9414633)" style="fill: none; stroke: #ffffff; stroke-width: 0.8; stroke-linecap: square"/>
     </g>
     <g id="line2d_10">
      <g>
       <use xlink:href="#mce2575a1f8" x="315.450917" y="252.56" style="fill: #555555; stroke: #555555; stroke-width: 0.8"/>
      </g>
     </g>
     <g id="text_5">
      <!-- 8 -->
      <g style="fill: #555555" transform="translate(312.269667 267.158437)scale(0.1 -0.1)">
       <defs>
        <path id="DejaVuSans-38" d="M 2034 2216 
Q 1584 2216 1326 1975 
Q 1069 1734 1069 1313 
Q 1069 891 1326 650 
Q 1584 409 2034 409 
Q 2484 409 2743 651 
Q 3003 894 3003 1313 
Q 3003 1734 2745 1975 
Q 2488 2216 2034 2216 
z
M 1403 2484 
Q 997 2584 770 2862 
Q 544 3141 544 3541 
Q 544 4100 942 4425 
Q 1341 4750 2034 4750 
Q 2731 4750 3128 4425 
Q 3525 4100 3525 3541 
Q 3525 3141 3298 2862 
Q 3072 2584 2669 2484 
Q 3125 2378 3379 2068 
Q 3634 1759 3634 1313 
Q 3634 634 3220 271 
Q 2806 -91 2034 -91 
Q 1263 -91 848 271 
Q 434 634 434 1313 
Q 434 1759 690 2068 
Q 947 2378 1403 2484 
z
M 1172 3481 
Q 1172 3119 1398 2916 
Q 1625 2713 2034 2713 
Q 2441 2713 2670 2916 
Q 2900 3119 2900 3481 
Q 2900 3844 2670 4047 
Q 2441 4250 2034 4250 
Q 1625 4250 1398 4047 
Q 1172 3844 1172 3481 
z
" transform="scale(0.015625)"/>
       </defs>
       <use xlink:href="#DejaVuSans-38"/>
      </g>
     </g>
    </g>
    <g id="xtick_6">
     <g id="line2d_11">
      <path d="M 385.269583 252.56 
L 385.269583 7.2 
" clip-path="url(#pdae9414633)" style="fill: none; stroke: #ffffff; stroke-width: 0.8; stroke-linecap: square"/>
     </g>
     <g id="line2d_12">
      <g>
       <use xlink:href="#mce2575a1f8" x="385.269583" y="252.56" style="fill: #555555; stroke: #555555; stroke-width: 0.8"/>
      </g>
     </g>
     <g id="text_6">
      <!-- 10 -->
      <g style="fill: #555555" transform="translate(378.907083 267.158437)scale(0.1 -0.1)">
       <defs>
        <path id="DejaVuSans-31" d="M 794 531 
L 1825 531 
L 1825 4091 
L 703 3866 
L 703 4441 
L 1819 4666 
L 2450 4666 
L 2450 531 
L 3481 531 
L 3481 0 
L 794 0 
L 794 531 
z
" transform="scale(0.015625)"/>
       </defs>
       <use xlink:href="#DejaVuSans-31"/>
       <use xlink:href="#DejaVuSans-30" x="63.623047"/>
      </g>
     </g>
    </g>
    <g id="xtick_7">
     <g id="line2d_13">
      <path d="M 455.08825 252.56 
L 455.08825 7.2 
" clip-path="url(#pdae9414633)" style="fill: none; stroke: #ffffff; stroke-width: 0.8; stroke-linecap: square"/>
     </g>
     <g id="line2d_14">
      <g>
       <use xlink:href="#mce2575a1f8" x="455.08825" y="252.56" style="fill: #555555; stroke: #555555; stroke-width: 0.8"/>
      </g>
     </g>
     <g id="text_7">
      <!-- 12 -->
      <g style="fill: #555555" transform="translate(448.72575 267.158437)scale(0.1 -0.1)">
       <use xlink:href="#DejaVuSans-31"/>
       <use xlink:href="#DejaVuSans-32" x="63.623047"/>
      </g>
     </g>
    </g>
    <g id="xtick_8">
     <g id="line2d_15">
      <path d="M 524.906917 252.56 
L 524.906917 7.2 
" clip-path="url(#pdae9414633)" style="fill: none; stroke: #ffffff; stroke-width: 0.8; stroke-linecap: square"/>
     </g>
     <g id="line2d_16">
      <g>
       <use xlink:href="#mce2575a1f8" x="524.906917" y="252.56" style="fill: #555555; stroke: #555555; stroke-width: 0.8"/>
      </g>
     </g>
     <g id="text_8">
      <!-- 14 -->
      <g style="fill: #555555" transform="translate(518.544417 267.158437)scale(0.1 -0.1)">
       <use xlink:href="#DejaVuSans-31"/>
       <use xlink:href="#DejaVuSans-34" x="63.623047"/>
      </g>
     </g>
    </g>
    <g id="text_9">
     <!-- time (days) -->
     <g style="fill: #555555" transform="translate(263.689375 282.35625)scale(0.12 -0.12)">
      <defs>
       <path id="DejaVuSans-74" d="M 1172 4494 
L 1172 3500 
L 2356 3500 
L 2356 3053 
L 1172 3053 
L 1172 1153 
Q 1172 725 1289 603 
Q 1406 481 1766 481 
L 2356 481 
L 2356 0 
L 1766 0 
Q 1100 0 847 248 
Q 594 497 594 1153 
L 594 3053 
L 172 3053 
L 172 3500 
L 594 3500 
L 594 4494 
L 1172 4494 
z
" transform="scale(0.015625)"/>
       <path id="DejaVuSans-69" d="M 603 3500 
L 1178 3500 
L 1178 0 
L 603 0 
L 603 3500 
z
M 603 4863 
L 1178 4863 
L 1178 4134 
L 603 4134 
L 603 4863 
z
" transform="scale(0.015625)"/>
       <path id="DejaVuSans-6d" d="M 3328 2828 
Q 3544 3216 3844 3400 
Q 4144 3584 4550 3584 
Q 5097 3584 5394 3201 
Q 5691 2819 5691 2113 
L 5691 0 
L 5113 0 
L 5113 2094 
Q 5113 2597 4934 2840 
Q 4756 3084 4391 3084 
Q 3944 3084 3684 2787 
Q 3425 2491 3425 1978 
L 3425 0 
L 2847 0 
L 2847 2094 
Q 2847 2600 2669 2842 
Q 2491 3084 2119 3084 
Q 1678 3084 1418 2786 
Q 1159 2488 1159 1978 
L 1159 0 
L 581 0 
L 581 3500 
L 1159 3500 
L 1159 2956 
Q 1356 3278 1631 3431 
Q 1906 3584 2284 3584 
Q 2666 3584 2933 3390 
Q 3200 3197 3328 2828 
z
" transform="scale(0.015625)"/>
       <path id="DejaVuSans-65" d="M 3597 1894 
L 3597 1613 
L 953 1613 
Q 991 1019 1311 708 
Q 1631 397 2203 397 
Q 2534 397 2845 478 
Q 3156 559 3463 722 
L 3463 178 
Q 3153 47 2828 -22 
Q 2503 -91 2169 -91 
Q 1331 -91 842 396 
Q 353 884 353 1716 
Q 353 2575 817 3079 
Q 1281 3584 2069 3584 
Q 2775 3584 3186 3129 
Q 3597 2675 3597 1894 
z
M 3022 2063 
Q 3016 2534 2758 2815 
Q 2500 3097 2075 3097 
Q 1594 3097 1305 2825 
Q 1016 2553 972 2059 
L 3022 2063 
z
" transform="scale(0.015625)"/>
       <path id="DejaVuSans-20" transform="scale(0.015625)"/>
       <path id="DejaVuSans-28" d="M 1984 4856 
Q 1566 4138 1362 3434 
Q 1159 2731 1159 2009 
Q 1159 1288 1364 580 
Q 1569 -128 1984 -844 
L 1484 -844 
Q 1016 -109 783 600 
Q 550 1309 550 2009 
Q 550 2706 781 3412 
Q 1013 4119 1484 4856 
L 1984 4856 
z
" transform="scale(0.015625)"/>
       <path id="DejaVuSans-64" d="M 2906 2969 
L 2906 4863 
L 3481 4863 
L 3481 0 
L 2906 0 
L 2906 525 
Q 2725 213 2448 61 
Q 2172 -91 1784 -91 
Q 1150 -91 751 415 
Q 353 922 353 1747 
Q 353 2572 751 3078 
Q 1150 3584 1784 3584 
Q 2172 3584 2448 3432 
Q 2725 3281 2906 2969 
z
M 947 1747 
Q 947 1113 1208 752 
Q 1469 391 1925 391 
Q 2381 391 2643 752 
Q 2906 1113 2906 1747 
Q 2906 2381 2643 2742 
Q 2381 3103 1925 3103 
Q 1469 3103 1208 2742 
Q 947 2381 947 1747 
z
" transform="scale(0.015625)"/>
       <path id="DejaVuSans-61" d="M 2194 1759 
Q 1497 1759 1228 1600 
Q 959 1441 959 1056 
Q 959 750 1161 570 
Q 1363 391 1709 391 
Q 2188 391 2477 730 
Q 2766 1069 2766 1631 
L 2766 1759 
L 2194 1759 
z
M 3341 1997 
L 3341 0 
L 2766 0 
L 2766 531 
Q 2569 213 2275 61 
Q 1981 -91 1556 -91 
Q 1019 -91 701 211 
Q 384 513 384 1019 
Q 384 1609 779 1909 
Q 1175 2209 1959 2209 
L 2766 2209 
L 2766 2266 
Q 2766 2663 2505 2880 
Q 2244 3097 1772 3097 
Q 1472 3097 1187 3025 
Q 903 2953 641 2809 
L 641 3341 
Q 956 3463 1253 3523 
Q 1550 3584 1831 3584 
Q 2591 3584 2966 3190 
Q 3341 2797 3341 1997 
z
" transform="scale(0.015625)"/>
       <path id="DejaVuSans-79" d="M 2059 -325 
Q 1816 -950 1584 -1140 
Q 1353 -1331 966 -1331 
L 506 -1331 
L 506 -850 
L 844 -850 
Q 1081 -850 1212 -737 
Q 1344 -625 1503 -206 
L 1606 56 
L 191 3500 
L 800 3500 
L 1894 763 
L 2988 3500 
L 3597 3500 
L 2059 -325 
z
" transform="scale(0.015625)"/>
       <path id="DejaVuSans-73" d="M 2834 3397 
L 2834 2853 
Q 2591 2978 2328 3040 
Q 2066 3103 1784 3103 
Q 1356 3103 1142 2972 
Q 928 2841 928 2578 
Q 928 2378 1081 2264 
Q 1234 2150 1697 2047 
L 1894 2003 
Q 2506 1872 2764 1633 
Q 3022 1394 3022 966 
Q 3022 478 2636 193 
Q 2250 -91 1575 -91 
Q 1294 -91 989 -36 
Q 684 19 347 128 
L 347 722 
Q 666 556 975 473 
Q 1284 391 1588 391 
Q 1994 391 2212 530 
Q 2431 669 2431 922 
Q 2431 1156 2273 1281 
Q 2116 1406 1581 1522 
L 1381 1569 
Q 847 1681 609 1914 
Q 372 2147 372 2553 
Q 372 3047 722 3315 
Q 1072 3584 1716 3584 
Q 2034 3584 2315 3537 
Q 2597 3491 2834 3397 
z
" transform="scale(0.015625)"/>
       <path id="DejaVuSans-29" d="M 513 4856 
L 1013 4856 
Q 1481 4119 1714 3412 
Q 1947 2706 1947 2009 
Q 1947 1309 1714 600 
Q 1481 -109 1013 -844 
L 513 -844 
Q 928 -128 1133 580 
Q 1338 1288 1338 2009 
Q 1338 2731 1133 3434 
Q 928 4138 513 4856 
z
" transform="scale(0.015625)"/>
      </defs>
      <use xlink:href="#DejaVuSans-74"/>
      <use xlink:href="#DejaVuSans-69" x="39.208984"/>
      <use xlink:href="#DejaVuSans-6d" x="66.992188"/>
      <use xlink:href="#DejaVuSans-65" x="164.404297"/>
      <use xlink:href="#DejaVuSans-20" x="225.927734"/>
      <use xlink:href="#DejaVuSans-28" x="257.714844"/>
      <use xlink:href="#DejaVuSans-64" x="296.728516"/>
      <use xlink:href="#DejaVuSans-61" x="360.205078"/>
      <use xlink:href="#DejaVuSans-79" x="421.484375"/>
      <use xlink:href="#DejaVuSans-73" x="480.664062"/>
      <use xlink:href="#DejaVuSans-29" x="532.763672"/>
     </g>
    </g>
   </g>
   <g id="matplotlib.axis_2">
    <g id="ytick_1">
     <g id="line2d_17">
      <path d="M 36.17625 241.407273 
L 559.81625 241.407273 
" clip-path="url(#pdae9414633)" style="fill: none; stroke: #ffffff; stroke-width: 0.8; stroke-linecap: square"/>
     </g>
     <g id="line2d_18">
      <defs>
       <path id="mf6602247cd" d="M 0 0 
L -3.5 0 
" style="stroke: #555555; stroke-width: 0.8"/>
      </defs>
      <g>
       <use xlink:href="#mf6602247cd" x="36.17625" y="241.407273" style="fill: #555555; stroke: #555555; stroke-width: 0.8"/>
      </g>
     </g>
     <g id="text_10">
      <!-- 0 -->
      <g style="fill: #555555" transform="translate(22.81375 245.206491)scale(0.1 -0.1)">
       <use xlink:href="#DejaVuSans-30"/>
      </g>
     </g>
    </g>
    <g id="ytick_2">
     <g id="line2d_19">
      <path d="M 36.17625 198.340034 
L 559.81625 198.340034 
" clip-path="url(#pdae9414633)" style="fill: none; stroke: #ffffff; stroke-width: 0.8; stroke-linecap: square"/>
     </g>
     <g id="line2d_20">
      <g>
       <use xlink:href="#mf6602247cd" x="36.17625" y="198.340034" style="fill: #555555; stroke: #555555; stroke-width: 0.8"/>
      </g>
     </g>
     <g id="text_11">
      <!-- 1 -->
      <g style="fill: #555555" transform="translate(22.81375 202.139253)scale(0.1 -0.1)">
       <use xlink:href="#DejaVuSans-31"/>
      </g>
     </g>
    </g>
    <g id="ytick_3">
     <g id="line2d_21">
      <path d="M 36.17625 155.272795 
L 559.81625 155.272795 
" clip-path="url(#pdae9414633)" style="fill: none; stroke: #ffffff; stroke-width: 0.8; stroke-linecap: square"/>
     </g>
     <g id="line2d_22">
      <g>
       <use xlink:href="#mf6602247cd" x="36.17625" y="155.272795" style="fill: #555555; stroke: #555555; stroke-width: 0.8"/>
      </g>
     </g>
     <g id="text_12">
      <!-- 2 -->
      <g style="fill: #555555" transform="translate(22.81375 159.072014)scale(0.1 -0.1)">
       <use xlink:href="#DejaVuSans-32"/>
      </g>
     </g>
    </g>
    <g id="ytick_4">
     <g id="line2d_23">
      <path d="M 36.17625 112.205556 
L 559.81625 112.205556 
" clip-path="url(#pdae9414633)" style="fill: none; stroke: #ffffff; stroke-width: 0.8; stroke-linecap: square"/>
     </g>
     <g id="line2d_24">
      <g>
       <use xlink:href="#mf6602247cd" x="36.17625" y="112.205556" style="fill: #555555; stroke: #555555; stroke-width: 0.8"/>
      </g>
     </g>
     <g id="text_13">
      <!-- 3 -->
      <g style="fill: #555555" transform="translate(22.81375 116.004775)scale(0.1 -0.1)">
       <defs>
        <path id="DejaVuSans-33" d="M 2597 2516 
Q 3050 2419 3304 2112 
Q 3559 1806 3559 1356 
Q 3559 666 3084 287 
Q 2609 -91 1734 -91 
Q 1441 -91 1130 -33 
Q 819 25 488 141 
L 488 750 
Q 750 597 1062 519 
Q 1375 441 1716 441 
Q 2309 441 2620 675 
Q 2931 909 2931 1356 
Q 2931 1769 2642 2001 
Q 2353 2234 1838 2234 
L 1294 2234 
L 1294 2753 
L 1863 2753 
Q 2328 2753 2575 2939 
Q 2822 3125 2822 3475 
Q 2822 3834 2567 4026 
Q 2313 4219 1838 4219 
Q 1578 4219 1281 4162 
Q 984 4106 628 3988 
L 628 4550 
Q 988 4650 1302 4700 
Q 1616 4750 1894 4750 
Q 2613 4750 3031 4423 
Q 3450 4097 3450 3541 
Q 3450 3153 3228 2886 
Q 3006 2619 2597 2516 
z
" transform="scale(0.015625)"/>
       </defs>
       <use xlink:href="#DejaVuSans-33"/>
      </g>
     </g>
    </g>
    <g id="ytick_5">
     <g id="line2d_25">
      <path d="M 36.17625 69.138317 
L 559.81625 69.138317 
" clip-path="url(#pdae9414633)" style="fill: none; stroke: #ffffff; stroke-width: 0.8; stroke-linecap: square"/>
     </g>
     <g id="line2d_26">
      <g>
       <use xlink:href="#mf6602247cd" x="36.17625" y="69.138317" style="fill: #555555; stroke: #555555; stroke-width: 0.8"/>
      </g>
     </g>
     <g id="text_14">
      <!-- 4 -->
      <g style="fill: #555555" transform="translate(22.81375 72.937536)scale(0.1 -0.1)">
       <use xlink:href="#DejaVuSans-34"/>
      </g>
     </g>
    </g>
    <g id="ytick_6">
     <g id="line2d_27">
      <path d="M 36.17625 26.071079 
L 559.81625 26.071079 
" clip-path="url(#pdae9414633)" style="fill: none; stroke: #ffffff; stroke-width: 0.8; stroke-linecap: square"/>
     </g>
     <g id="line2d_28">
      <g>
       <use xlink:href="#mf6602247cd" x="36.17625" y="26.071079" style="fill: #555555; stroke: #555555; stroke-width: 0.8"/>
      </g>
     </g>
     <g id="text_15">
      <!-- 5 -->
      <g style="fill: #555555" transform="translate(22.81375 29.870297)scale(0.1 -0.1)">
       <defs>
        <path id="DejaVuSans-35" d="M 691 4666 
L 3169 4666 
L 3169 4134 
L 1269 4134 
L 1269 2991 
Q 1406 3038 1543 3061 
Q 1681 3084 1819 3084 
Q 2600 3084 3056 2656 
Q 3513 2228 3513 1497 
Q 3513 744 3044 326 
Q 2575 -91 1722 -91 
Q 1428 -91 1123 -41 
Q 819 9 494 109 
L 494 744 
Q 775 591 1075 516 
Q 1375 441 1709 441 
Q 2250 441 2565 725 
Q 2881 1009 2881 1497 
Q 2881 1984 2565 2268 
Q 2250 2553 1709 2553 
Q 1456 2553 1204 2497 
Q 953 2441 691 2322 
L 691 4666 
z
" transform="scale(0.015625)"/>
       </defs>
       <use xlink:href="#DejaVuSans-35"/>
      </g>
     </g>
    </g>
    <g id="text_16">
     <!-- cases (for time series) -->
     <g style="fill: #555555" transform="translate(16.318125 196.775312)rotate(-90)scale(0.12 -0.12)">
      <defs>
       <path id="DejaVuSans-63" d="M 3122 3366 
L 3122 2828 
Q 2878 2963 2633 3030 
Q 2388 3097 2138 3097 
Q 1578 3097 1268 2742 
Q 959 2388 959 1747 
Q 959 1106 1268 751 
Q 1578 397 2138 397 
Q 2388 397 2633 464 
Q 2878 531 3122 666 
L 3122 134 
Q 2881 22 2623 -34 
Q 2366 -91 2075 -91 
Q 1284 -91 818 406 
Q 353 903 353 1747 
Q 353 2603 823 3093 
Q 1294 3584 2113 3584 
Q 2378 3584 2631 3529 
Q 2884 3475 3122 3366 
z
" transform="scale(0.015625)"/>
       <path id="DejaVuSans-66" d="M 2375 4863 
L 2375 4384 
L 1825 4384 
Q 1516 4384 1395 4259 
Q 1275 4134 1275 3809 
L 1275 3500 
L 2222 3500 
L 2222 3053 
L 1275 3053 
L 1275 0 
L 697 0 
L 697 3053 
L 147 3053 
L 147 3500 
L 697 3500 
L 697 3744 
Q 697 4328 969 4595 
Q 1241 4863 1831 4863 
L 2375 4863 
z
" transform="scale(0.015625)"/>
       <path id="DejaVuSans-6f" d="M 1959 3097 
Q 1497 3097 1228 2736 
Q 959 2375 959 1747 
Q 959 1119 1226 758 
Q 1494 397 1959 397 
Q 2419 397 2687 759 
Q 2956 1122 2956 1747 
Q 2956 2369 2687 2733 
Q 2419 3097 1959 3097 
z
M 1959 3584 
Q 2709 3584 3137 3096 
Q 3566 2609 3566 1747 
Q 3566 888 3137 398 
Q 2709 -91 1959 -91 
Q 1206 -91 779 398 
Q 353 888 353 1747 
Q 353 2609 779 3096 
Q 1206 3584 1959 3584 
z
" transform="scale(0.015625)"/>
       <path id="DejaVuSans-72" d="M 2631 2963 
Q 2534 3019 2420 3045 
Q 2306 3072 2169 3072 
Q 1681 3072 1420 2755 
Q 1159 2438 1159 1844 
L 1159 0 
L 581 0 
L 581 3500 
L 1159 3500 
L 1159 2956 
Q 1341 3275 1631 3429 
Q 1922 3584 2338 3584 
Q 2397 3584 2469 3576 
Q 2541 3569 2628 3553 
L 2631 2963 
z
" transform="scale(0.015625)"/>
      </defs>
      <use xlink:href="#DejaVuSans-63"/>
      <use xlink:href="#DejaVuSans-61" x="54.980469"/>
      <use xlink:href="#DejaVuSans-73" x="116.259766"/>
      <use xlink:href="#DejaVuSans-65" x="168.359375"/>
      <use xlink:href="#DejaVuSans-73" x="229.882812"/>
      <use xlink:href="#DejaVuSans-20" x="281.982422"/>
      <use xlink:href="#DejaVuSans-28" x="313.769531"/>
      <use xlink:href="#DejaVuSans-66" x="352.783203"/>
      <use xlink:href="#DejaVuSans-6f" x="387.988281"/>
      <use xlink:href="#DejaVuSans-72" x="449.169922"/>
      <use xlink:href="#DejaVuSans-20" x="490.283203"/>
      <use xlink:href="#DejaVuSans-74" x="522.070312"/>
      <use xlink:href="#DejaVuSans-69" x="561.279297"/>
      <use xlink:href="#DejaVuSans-6d" x="589.0625"/>
      <use xlink:href="#DejaVuSans-65" x="686.474609"/>
      <use xlink:href="#DejaVuSans-20" x="747.998047"/>
      <use xlink:href="#DejaVuSans-73" x="779.785156"/>
      <use xlink:href="#DejaVuSans-65" x="831.884766"/>
      <use xlink:href="#DejaVuSans-72" x="893.408203"/>
      <use xlink:href="#DejaVuSans-69" x="934.521484"/>
      <use xlink:href="#DejaVuSans-65" x="962.304688"/>
      <use xlink:href="#DejaVuSans-73" x="1023.828125"/>
      <use xlink:href="#DejaVuSans-29" x="1075.927734"/>
     </g>
    </g>
   </g>
   <g id="patch_3">
    <path d="M 168.831717 198.340034 
L 158.358917 202.646758 
L 158.358917 198.361568 
L 123.449583 198.361568 
L 123.449583 198.3185 
L 158.358917 198.3185 
L 158.358917 194.03331 
z
" clip-path="url(#pdae9414633)" style="fill: #008000; stroke: #008000; stroke-width: 0.5; stroke-linejoin: miter"/>
   </g>
   <g id="patch_4">
    <path d="M 203.74105 112.205556 
L 193.26825 116.51228 
L 193.26825 112.22709 
L 158.358917 112.22709 
L 158.358917 112.184023 
L 193.26825 112.184023 
L 193.26825 107.898832 
z
" clip-path="url(#pdae9414633)" style="fill: #ff0000; stroke: #ff0000; stroke-width: 0.5; stroke-linejoin: miter"/>
   </g>
   <g id="patch_5">
    <path d="M 238.650383 69.138317 
L 228.177583 73.445041 
L 228.177583 69.159851 
L 193.26825 69.159851 
L 193.26825 69.116784 
L 228.177583 69.116784 
L 228.177583 64.831594 
z
" clip-path="url(#pdae9414633)" style="fill: #bf00bf; stroke: #bf00bf; stroke-width: 0.5; stroke-linejoin: miter"/>
   </g>
   <g id="PolyCollection_1">
    <defs>
     <path id="m75917c84ca" d="M 186.500114 -50.644602 
L 186.500114 -50.647966 
L 197.186645 -50.931478 
L 207.873175 -53.605134 
L 218.559706 -63.221396 
L 229.246236 -83.754288 
L 239.932767 -115.491748 
L 250.619298 -154.631646 
L 261.305828 -195.043175 
L 271.992359 -230.556688 
L 282.678889 -256.629032 
L 293.36542 -271.027167 
L 304.051951 -273.699148 
L 314.738481 -266.189364 
L 325.425012 -250.925714 
L 336.111543 -230.5916 
L 346.798073 -207.678696 
L 357.484604 -184.232648 
L 368.171134 -161.758166 
L 378.857665 -141.234022 
L 389.544196 -123.1905 
L 400.230726 -107.812257 
L 410.917257 -95.041874 
L 421.603787 -84.670226 
L 432.290318 -76.407832 
L 442.976849 -69.936587 
L 453.663379 -64.944118 
L 464.34991 -61.144246 
L 475.03644 -58.287177 
L 485.722971 -56.162675 
L 496.409502 -54.598819 
L 507.096032 -53.458297 
L 517.782563 -52.633601 
L 528.469094 -52.041973 
L 539.155624 -51.62065 
L 549.842155 -51.32265 
L 560.528685 -51.113217 
L 571.215216 -50.966903 
L 581.901747 -50.865256 
L 592.588277 -50.79501 
L 603.274808 -50.746704 
L 613.961338 -50.713641 
L 624.647869 -50.691111 
L 635.3344 -50.675822 
L 646.02093 -50.665488 
L 656.707461 -50.65853 
L 667.393991 -50.653861 
L 678.080522 -50.650739 
L 688.767053 -50.648658 
L 699.453583 -50.647276 
L 699.453583 -50.644602 
L 699.453583 -50.644602 
L 688.767053 -50.644602 
L 678.080522 -50.644602 
L 667.393991 -50.644602 
L 656.707461 -50.644602 
L 646.02093 -50.644602 
L 635.3344 -50.644602 
L 624.647869 -50.644602 
L 613.961338 -50.644602 
L 603.274808 -50.644602 
L 592.588277 -50.644602 
L 581.901747 -50.644602 
L 571.215216 -50.644602 
L 560.528685 -50.644602 
L 549.842155 -50.644602 
L 539.155624 -50.644602 
L 528.469094 -50.644602 
L 517.782563 -50.644602 
L 507.096032 -50.644602 
L 496.409502 -50.644602 
L 485.722971 -50.644602 
L 475.03644 -50.644602 
L 464.34991 -50.644602 
L 453.663379 -50.644602 
L 442.976849 -50.644602 
L 432.290318 -50.644602 
L 421.603787 -50.644602 
L 410.917257 -50.644602 
L 400.230726 -50.644602 
L 389.544196 -50.644602 
L 378.857665 -50.644602 
L 368.171134 -50.644602 
L 357.484604 -50.644602 
L 346.798073 -50.644602 
L 336.111543 -50.644602 
L 325.425012 -50.644602 
L 314.738481 -50.644602 
L 304.051951 -50.644602 
L 293.36542 -50.644602 
L 282.678889 -50.644602 
L 271.992359 -50.644602 
L 261.305828 -50.644602 
L 250.619298 -50.644602 
L 239.932767 -50.644602 
L 229.246236 -50.644602 
L 218.559706 -50.644602 
L 207.873175 -50.644602 
L 197.186645 -50.644602 
L 186.500114 -50.644602 
z
" style="stroke: #bf00bf; stroke-opacity: 0.1; stroke-width: 0.5"/>
    </defs>
    <g clip-path="url(#pdae9414633)">
     <use xlink:href="#m75917c84ca" x="0" y="292.051875" style="fill: #bf00bf; fill-opacity: 0.1; stroke: #bf00bf; stroke-opacity: 0.1; stroke-width: 0.5"/>
    </g>
   </g>
   <g id="PolyCollection_2">
    <defs>
     <path id="mdff88342f4" d="M 151.590781 -50.644602 
L 151.590781 -50.647125 
L 162.277311 -50.859759 
L 172.963842 -52.865001 
L 183.650372 -60.077198 
L 194.336903 -75.476867 
L 205.023434 -99.279962 
L 215.709964 -128.634885 
L 226.396495 -158.943532 
L 237.083026 -185.578666 
L 247.769556 -205.132924 
L 258.456087 -215.931526 
L 269.142617 -217.935511 
L 279.829148 -212.303173 
L 290.515679 -200.855436 
L 301.202209 -185.60485 
L 311.88874 -168.420173 
L 322.57527 -150.835637 
L 333.261801 -133.979775 
L 343.948332 -118.586667 
L 354.634862 -105.054026 
L 365.321393 -93.520343 
L 376.007923 -83.942556 
L 386.694454 -76.16382 
L 397.380985 -69.967025 
L 408.067515 -65.113591 
L 418.754046 -61.369239 
L 429.440577 -58.519335 
L 440.127107 -56.376534 
L 450.813638 -54.783157 
L 461.500168 -53.610265 
L 472.186699 -52.754874 
L 482.87323 -52.136351 
L 493.55976 -51.69263 
L 504.246291 -51.376638 
L 514.932821 -51.153138 
L 525.619352 -50.996063 
L 536.305883 -50.886328 
L 546.992413 -50.810092 
L 557.678944 -50.757408 
L 568.365474 -50.721179 
L 579.052005 -50.696382 
L 589.738536 -50.679484 
L 600.425066 -50.668017 
L 611.111597 -50.660267 
L 621.798128 -50.655048 
L 632.484658 -50.651546 
L 643.171189 -50.649205 
L 653.857719 -50.647644 
L 664.54425 -50.646607 
L 664.54425 -50.644602 
L 664.54425 -50.644602 
L 653.857719 -50.644602 
L 643.171189 -50.644602 
L 632.484658 -50.644602 
L 621.798128 -50.644602 
L 611.111597 -50.644602 
L 600.425066 -50.644602 
L 589.738536 -50.644602 
L 579.052005 -50.644602 
L 568.365474 -50.644602 
L 557.678944 -50.644602 
L 546.992413 -50.644602 
L 536.305883 -50.644602 
L 525.619352 -50.644602 
L 514.932821 -50.644602 
L 504.246291 -50.644602 
L 493.55976 -50.644602 
L 482.87323 -50.644602 
L 472.186699 -50.644602 
L 461.500168 -50.644602 
L 450.813638 -50.644602 
L 440.127107 -50.644602 
L 429.440577 -50.644602 
L 418.754046 -50.644602 
L 408.067515 -50.644602 
L 397.380985 -50.644602 
L 386.694454 -50.644602 
L 376.007923 -50.644602 
L 365.321393 -50.644602 
L 354.634862 -50.644602 
L 343.948332 -50.644602 
L 333.261801 -50.644602 
L 322.57527 -50.644602 
L 311.88874 -50.644602 
L 301.202209 -50.644602 
L 290.515679 -50.644602 
L 279.829148 -50.644602 
L 269.142617 -50.644602 
L 258.456087 -50.644602 
L 247.769556 -50.644602 
L 237.083026 -50.644602 
L 226.396495 -50.644602 
L 215.709964 -50.644602 
L 205.023434 -50.644602 
L 194.336903 -50.644602 
L 183.650372 -50.644602 
L 172.963842 -50.644602 
L 162.277311 -50.644602 
L 151.590781 -50.644602 
z
" style="stroke: #ff0000; stroke-opacity: 0.1; stroke-width: 0.5"/>
    </defs>
    <g clip-path="url(#pdae9414633)">
     <use xlink:href="#mdff88342f4" x="0" y="292.051875" style="fill: #ff0000; fill-opacity: 0.1; stroke: #ff0000; stroke-opacity: 0.1; stroke-width: 0.5"/>
    </g>
   </g>
   <g id="PolyCollection_3">
    <defs>
     <path id="m6fc7a4e35c" d="M 116.681447 -50.644602 
L 116.681447 -50.645443 
L 127.367978 -50.716321 
L 138.054509 -51.384735 
L 148.741039 -53.788801 
L 159.42757 -58.922024 
L 170.1141 -66.856389 
L 180.800631 -76.641363 
L 191.487162 -86.744245 
L 202.173692 -95.622624 
L 212.860223 -102.14071 
L 223.546753 -105.740244 
L 234.233284 -106.408239 
L 244.919815 -104.530793 
L 255.606345 -100.71488 
L 266.292876 -95.631352 
L 276.979406 -89.903126 
L 287.665937 -84.041614 
L 298.352468 -78.422993 
L 309.038998 -73.291957 
L 319.725529 -68.781077 
L 330.41206 -64.936516 
L 341.09859 -61.74392 
L 351.785121 -59.151008 
L 362.471651 -57.08541 
L 373.158182 -55.467598 
L 383.844713 -54.219481 
L 394.531243 -53.269513 
L 405.217774 -52.555246 
L 415.904304 -52.024121 
L 426.590835 -51.633156 
L 437.277366 -51.348026 
L 447.963896 -51.141852 
L 458.650427 -50.993945 
L 469.336957 -50.888614 
L 480.023488 -50.814114 
L 490.710019 -50.761756 
L 501.396549 -50.725177 
L 512.08308 -50.699766 
L 522.769611 -50.682204 
L 533.456141 -50.670128 
L 544.142672 -50.661862 
L 554.829202 -50.656229 
L 565.515733 -50.652407 
L 576.202264 -50.649824 
L 586.888794 -50.648084 
L 597.575325 -50.646917 
L 608.261855 -50.646136 
L 618.948386 -50.645616 
L 629.634917 -50.645271 
L 629.634917 -50.644602 
L 629.634917 -50.644602 
L 618.948386 -50.644602 
L 608.261855 -50.644602 
L 597.575325 -50.644602 
L 586.888794 -50.644602 
L 576.202264 -50.644602 
L 565.515733 -50.644602 
L 554.829202 -50.644602 
L 544.142672 -50.644602 
L 533.456141 -50.644602 
L 522.769611 -50.644602 
L 512.08308 -50.644602 
L 501.396549 -50.644602 
L 490.710019 -50.644602 
L 480.023488 -50.644602 
L 469.336957 -50.644602 
L 458.650427 -50.644602 
L 447.963896 -50.644602 
L 437.277366 -50.644602 
L 426.590835 -50.644602 
L 415.904304 -50.644602 
L 405.217774 -50.644602 
L 394.531243 -50.644602 
L 383.844713 -50.644602 
L 373.158182 -50.644602 
L 362.471651 -50.644602 
L 351.785121 -50.644602 
L 341.09859 -50.644602 
L 330.41206 -50.644602 
L 319.725529 -50.644602 
L 309.038998 -50.644602 
L 298.352468 -50.644602 
L 287.665937 -50.644602 
L 276.979406 -50.644602 
L 266.292876 -50.644602 
L 255.606345 -50.644602 
L 244.919815 -50.644602 
L 234.233284 -50.644602 
L 223.546753 -50.644602 
L 212.860223 -50.644602 
L 202.173692 -50.644602 
L 191.487162 -50.644602 
L 180.800631 -50.644602 
L 170.1141 -50.644602 
L 159.42757 -50.644602 
L 148.741039 -50.644602 
L 138.054509 -50.644602 
L 127.367978 -50.644602 
L 116.681447 -50.644602 
z
" style="stroke: #008000; stroke-opacity: 0.1; stroke-width: 0.5"/>
    </defs>
    <g clip-path="url(#pdae9414633)">
     <use xlink:href="#m6fc7a4e35c" x="0" y="292.051875" style="fill: #008000; fill-opacity: 0.1; stroke: #008000; stroke-opacity: 0.1; stroke-width: 0.5"/>
    </g>
   </g>
   <g id="line2d_29">
    <path d="M 36.17625 241.407273 
L 71.085583 241.407273 
L 105.994917 198.340034 
L 140.90425 112.205556 
L 175.813583 69.138317 
" clip-path="url(#pdae9414633)" style="fill: none; stroke-dasharray: 5.55,2.4; stroke-dashoffset: 0; stroke: #000000; stroke-width: 1.5"/>
   </g>
   <g id="line2d_30">
    <path d="M 105.994917 198.340034 
" clip-path="url(#pdae9414633)" style="fill: none; stroke: #008000; stroke-width: 1.5; stroke-linecap: square"/>
    <defs>
     <path id="m6a2866ca36" d="M 0 3 
C 0.795609 3 1.55874 2.683901 2.12132 2.12132 
C 2.683901 1.55874 3 0.795609 3 0 
C 3 -0.795609 2.683901 -1.55874 2.12132 -2.12132 
C 1.55874 -2.683901 0.795609 -3 0 -3 
C -0.795609 -3 -1.55874 -2.683901 -2.12132 -2.12132 
C -2.683901 -1.55874 -3 -0.795609 -3 0 
C -3 0.795609 -2.683901 1.55874 -2.12132 2.12132 
C -1.55874 2.683901 -0.795609 3 0 3 
z
" style="stroke: #008000"/>
    </defs>
    <g clip-path="url(#pdae9414633)">
     <use xlink:href="#m6a2866ca36" x="105.994917" y="198.340034" style="fill: #008000; stroke: #008000"/>
    </g>
   </g>
   <g id="line2d_31">
    <path d="M 140.90425 112.205556 
" clip-path="url(#pdae9414633)" style="fill: none; stroke: #ff0000; stroke-width: 1.5; stroke-linecap: square"/>
    <defs>
     <path id="ma4df957ecf" d="M 0 3 
C 0.795609 3 1.55874 2.683901 2.12132 2.12132 
C 2.683901 1.55874 3 0.795609 3 0 
C 3 -0.795609 2.683901 -1.55874 2.12132 -2.12132 
C 1.55874 -2.683901 0.795609 -3 0 -3 
C -0.795609 -3 -1.55874 -2.683901 -2.12132 -2.12132 
C -2.683901 -1.55874 -3 -0.795609 -3 0 
C -3 0.795609 -2.683901 1.55874 -2.12132 2.12132 
C -1.55874 2.683901 -0.795609 3 0 3 
z
" style="stroke: #ff0000"/>
    </defs>
    <g clip-path="url(#pdae9414633)">
     <use xlink:href="#ma4df957ecf" x="140.90425" y="112.205556" style="fill: #ff0000; stroke: #ff0000"/>
    </g>
   </g>
   <g id="line2d_32">
    <path d="M 175.813583 69.138317 
" clip-path="url(#pdae9414633)" style="fill: none; stroke: #bf00bf; stroke-width: 1.5; stroke-linecap: square"/>
    <defs>
     <path id="md40a2f7a27" d="M 0 3 
C 0.795609 3 1.55874 2.683901 2.12132 2.12132 
C 2.683901 1.55874 3 0.795609 3 0 
C 3 -0.795609 2.683901 -1.55874 2.12132 -2.12132 
C 1.55874 -2.683901 0.795609 -3 0 -3 
C -0.795609 -3 -1.55874 -2.683901 -2.12132 -2.12132 
C -2.683901 -1.55874 -3 -0.795609 -3 0 
C -3 0.795609 -2.683901 1.55874 -2.12132 2.12132 
C -1.55874 2.683901 -0.795609 3 0 3 
z
" style="stroke: #bf00bf"/>
    </defs>
    <g clip-path="url(#pdae9414633)">
     <use xlink:href="#md40a2f7a27" x="175.813583" y="69.138317" style="fill: #bf00bf; stroke: #bf00bf"/>
    </g>
   </g>
   <g id="line2d_33">
    <path d="M 186.500114 241.403909 
L 197.186645 241.120397 
L 207.873175 238.446741 
L 218.559706 228.830479 
L 229.246236 208.297587 
L 239.932767 176.560127 
L 250.619298 137.420229 
L 261.305828 97.0087 
L 271.992359 61.495187 
L 282.678889 35.422843 
L 293.36542 21.024708 
L 304.051951 18.352727 
L 314.738481 25.862511 
L 325.425012 41.126161 
L 336.111543 61.460275 
L 346.798073 84.373179 
L 357.484604 107.819227 
L 368.171134 130.293709 
L 378.857665 150.817853 
L 389.544196 168.861375 
L 400.230726 184.239618 
L 410.917257 197.010001 
L 421.603787 207.381649 
L 432.290318 215.644043 
L 442.976849 222.115288 
L 453.663379 227.107757 
L 464.34991 230.907629 
L 475.03644 233.764698 
L 485.722971 235.8892 
L 496.409502 237.453056 
L 507.096032 238.593578 
L 517.782563 239.418274 
L 528.469094 240.009902 
L 539.155624 240.431225 
L 549.842155 240.729225 
L 560.528685 240.938658 
L 568.01625 241.041174 
" clip-path="url(#pdae9414633)" style="fill: none; stroke: #bf00bf; stroke-opacity: 0.2; stroke-width: 1.5; stroke-linecap: square"/>
   </g>
   <g id="line2d_34">
    <path d="M 280.541583 40.637312 
" clip-path="url(#pdae9414633)" style="fill: none; stroke: #bf00bf; stroke-width: 1.5; stroke-linecap: square"/>
    <g clip-path="url(#pdae9414633)">
     <use xlink:href="#md40a2f7a27" x="280.541583" y="40.637312" style="fill: #bf00bf; stroke: #bf00bf"/>
    </g>
   </g>
   <g id="line2d_35">
    <path d="M 280.541583 241.407273 
L 280.541583 40.637312 
" clip-path="url(#pdae9414633)" style="fill: none; stroke-dasharray: 1.5,2.475; stroke-dashoffset: 0; stroke: #bf00bf; stroke-width: 1.5"/>
   </g>
   <g id="line2d_36">
    <path d="M 151.590781 241.40475 
L 162.277311 241.192116 
L 172.963842 239.186874 
L 183.650372 231.974677 
L 194.336903 216.575008 
L 205.023434 192.771913 
L 215.709964 163.41699 
L 226.396495 133.108343 
L 237.083026 106.473209 
L 247.769556 86.918951 
L 258.456087 76.120349 
L 269.142617 74.116364 
L 279.829148 79.748702 
L 290.515679 91.196439 
L 301.202209 106.447025 
L 311.88874 123.631702 
L 322.57527 141.216238 
L 333.261801 158.0721 
L 343.948332 173.465208 
L 354.634862 186.997849 
L 365.321393 198.531532 
L 376.007923 208.109319 
L 386.694454 215.888055 
L 397.380985 222.08485 
L 408.067515 226.938284 
L 418.754046 230.682636 
L 429.440577 233.53254 
L 440.127107 235.675341 
L 450.813638 237.268718 
L 461.500168 238.44161 
L 472.186699 239.297001 
L 482.87323 239.915524 
L 493.55976 240.359245 
L 504.246291 240.675237 
L 514.932821 240.898737 
L 525.619352 241.055812 
L 536.305883 241.165547 
L 546.992413 241.241783 
L 557.678944 241.294467 
L 568.01625 241.329512 
" clip-path="url(#pdae9414633)" style="fill: none; stroke: #ff0000; stroke-opacity: 0.2; stroke-width: 1.5; stroke-linecap: square"/>
   </g>
   <g id="line2d_37">
    <path d="M 280.541583 80.511884 
" clip-path="url(#pdae9414633)" style="fill: none; stroke: #ff0000; stroke-width: 1.5; stroke-linecap: square"/>
    <g clip-path="url(#pdae9414633)">
     <use xlink:href="#ma4df957ecf" x="280.541583" y="80.511884" style="fill: #ff0000; stroke: #ff0000"/>
    </g>
   </g>
   <g id="line2d_38">
    <path d="M 280.541583 241.407273 
L 280.541583 80.511884 
" clip-path="url(#pdae9414633)" style="fill: none; stroke-dasharray: 1.5,2.475; stroke-dashoffset: 0; stroke: #ff0000; stroke-width: 1.5"/>
   </g>
   <g id="line2d_39">
    <path d="M 116.681447 241.406432 
L 127.367978 241.335554 
L 138.054509 240.66714 
L 148.741039 238.263074 
L 159.42757 233.129851 
L 170.1141 225.195486 
L 180.800631 215.410512 
L 191.487162 205.30763 
L 202.173692 196.429251 
L 212.860223 189.911165 
L 223.546753 186.311631 
L 234.233284 185.643636 
L 244.919815 187.521082 
L 255.606345 191.336995 
L 266.292876 196.420523 
L 276.979406 202.148749 
L 287.665937 208.010261 
L 298.352468 213.628882 
L 309.038998 218.759918 
L 319.725529 223.270798 
L 330.41206 227.115359 
L 341.09859 230.307955 
L 351.785121 232.900867 
L 362.471651 234.966465 
L 373.158182 236.584277 
L 383.844713 237.832394 
L 394.531243 238.782362 
L 405.217774 239.496629 
L 415.904304 240.027754 
L 426.590835 240.418719 
L 437.277366 240.703849 
L 447.963896 240.910023 
L 458.650427 241.05793 
L 469.336957 241.163261 
L 480.023488 241.237761 
L 490.710019 241.290119 
L 501.396549 241.326698 
L 512.08308 241.352109 
L 522.769611 241.369671 
L 533.456141 241.381747 
L 544.142672 241.390013 
L 554.829202 241.395646 
L 565.515733 241.399468 
L 568.01625 241.400072 
" clip-path="url(#pdae9414633)" style="fill: none; stroke: #008000; stroke-opacity: 0.2; stroke-width: 1.5; stroke-linecap: square"/>
   </g>
   <g id="line2d_40">
    <path d="M 280.541583 204.102587 
" clip-path="url(#pdae9414633)" style="fill: none; stroke: #008000; stroke-width: 1.5; stroke-linecap: square"/>
    <g clip-path="url(#pdae9414633)">
     <use xlink:href="#m6a2866ca36" x="280.541583" y="204.102587" style="fill: #008000; stroke: #008000"/>
    </g>
   </g>
   <g id="line2d_41">
    <path d="M 280.541583 241.407273 
L 280.541583 204.102587 
" clip-path="url(#pdae9414633)" style="fill: none; stroke-dasharray: 1.5,2.475; stroke-dashoffset: 0; stroke: #008000; stroke-width: 1.5"/>
   </g>
   <g id="patch_6">
    <path d="M 36.17625 252.56 
L 36.17625 7.2 
" style="fill: none; stroke: #ffffff; stroke-linejoin: miter; stroke-linecap: square"/>
   </g>
   <g id="patch_7">
    <path d="M 559.81625 252.56 
L 559.81625 7.2 
" style="fill: none; stroke: #ffffff; stroke-linejoin: miter; stroke-linecap: square"/>
   </g>
   <g id="patch_8">
    <path d="M 36.17625 252.56 
L 559.81625 252.56 
" style="fill: none; stroke: #ffffff; stroke-linejoin: miter; stroke-linecap: square"/>
   </g>
   <g id="patch_9">
    <path d="M 36.17625 7.2 
L 559.81625 7.2 
" style="fill: none; stroke: #ffffff; stroke-linejoin: miter; stroke-linecap: square"/>
   </g>
   <g id="text_17">
    <!-- cases -->
    <g style="fill: #4c4c4c" transform="translate(50.139983 141.83542)scale(0.12 -0.12)">
     <use xlink:href="#DejaVuSans-63"/>
     <use xlink:href="#DejaVuSans-61" x="54.980469"/>
     <use xlink:href="#DejaVuSans-73" x="116.259766"/>
     <use xlink:href="#DejaVuSans-65" x="168.359375"/>
     <use xlink:href="#DejaVuSans-73" x="229.882812"/>
    </g>
    <!-- epicurve -->
    <g style="fill: #4c4c4c" transform="translate(50.139983 155.272795)scale(0.12 -0.12)">
     <defs>
      <path id="DejaVuSans-70" d="M 1159 525 
L 1159 -1331 
L 581 -1331 
L 581 3500 
L 1159 3500 
L 1159 2969 
Q 1341 3281 1617 3432 
Q 1894 3584 2278 3584 
Q 2916 3584 3314 3078 
Q 3713 2572 3713 1747 
Q 3713 922 3314 415 
Q 2916 -91 2278 -91 
Q 1894 -91 1617 61 
Q 1341 213 1159 525 
z
M 3116 1747 
Q 3116 2381 2855 2742 
Q 2594 3103 2138 3103 
Q 1681 3103 1420 2742 
Q 1159 2381 1159 1747 
Q 1159 1113 1420 752 
Q 1681 391 2138 391 
Q 2594 391 2855 752 
Q 3116 1113 3116 1747 
z
" transform="scale(0.015625)"/>
      <path id="DejaVuSans-75" d="M 544 1381 
L 544 3500 
L 1119 3500 
L 1119 1403 
Q 1119 906 1312 657 
Q 1506 409 1894 409 
Q 2359 409 2629 706 
Q 2900 1003 2900 1516 
L 2900 3500 
L 3475 3500 
L 3475 0 
L 2900 0 
L 2900 538 
Q 2691 219 2414 64 
Q 2138 -91 1772 -91 
Q 1169 -91 856 284 
Q 544 659 544 1381 
z
M 1991 3584 
L 1991 3584 
z
" transform="scale(0.015625)"/>
      <path id="DejaVuSans-76" d="M 191 3500 
L 800 3500 
L 1894 563 
L 2988 3500 
L 3597 3500 
L 2284 0 
L 1503 0 
L 191 3500 
z
" transform="scale(0.015625)"/>
     </defs>
     <use xlink:href="#DejaVuSans-65"/>
     <use xlink:href="#DejaVuSans-70" x="61.523438"/>
     <use xlink:href="#DejaVuSans-69" x="125"/>
     <use xlink:href="#DejaVuSans-63" x="152.783203"/>
     <use xlink:href="#DejaVuSans-75" x="207.763672"/>
     <use xlink:href="#DejaVuSans-72" x="271.142578"/>
     <use xlink:href="#DejaVuSans-76" x="312.255859"/>
     <use xlink:href="#DejaVuSans-65" x="371.435547"/>
    </g>
   </g>
   <g id="text_18">
    <!-- secondary -->
    <g style="fill: #4c4c4c" transform="translate(332.905583 184.902659)scale(0.12 -0.12)">
     <defs>
      <path id="DejaVuSans-6e" d="M 3513 2113 
L 3513 0 
L 2938 0 
L 2938 2094 
Q 2938 2591 2744 2837 
Q 2550 3084 2163 3084 
Q 1697 3084 1428 2787 
Q 1159 2491 1159 1978 
L 1159 0 
L 581 0 
L 581 3500 
L 1159 3500 
L 1159 2956 
Q 1366 3272 1645 3428 
Q 1925 3584 2291 3584 
Q 2894 3584 3203 3211 
Q 3513 2838 3513 2113 
z
" transform="scale(0.015625)"/>
     </defs>
     <use xlink:href="#DejaVuSans-73"/>
     <use xlink:href="#DejaVuSans-65" x="52.099609"/>
     <use xlink:href="#DejaVuSans-63" x="113.623047"/>
     <use xlink:href="#DejaVuSans-6f" x="168.603516"/>
     <use xlink:href="#DejaVuSans-6e" x="229.785156"/>
     <use xlink:href="#DejaVuSans-64" x="293.164062"/>
     <use xlink:href="#DejaVuSans-61" x="356.640625"/>
     <use xlink:href="#DejaVuSans-72" x="417.919922"/>
     <use xlink:href="#DejaVuSans-79" x="459.033203"/>
    </g>
    <!-- distributions -->
    <g style="fill: #4c4c4c" transform="translate(332.905583 198.340034)scale(0.12 -0.12)">
     <defs>
      <path id="DejaVuSans-62" d="M 3116 1747 
Q 3116 2381 2855 2742 
Q 2594 3103 2138 3103 
Q 1681 3103 1420 2742 
Q 1159 2381 1159 1747 
Q 1159 1113 1420 752 
Q 1681 391 2138 391 
Q 2594 391 2855 752 
Q 3116 1113 3116 1747 
z
M 1159 2969 
Q 1341 3281 1617 3432 
Q 1894 3584 2278 3584 
Q 2916 3584 3314 3078 
Q 3713 2572 3713 1747 
Q 3713 922 3314 415 
Q 2916 -91 2278 -91 
Q 1894 -91 1617 61 
Q 1341 213 1159 525 
L 1159 0 
L 581 0 
L 581 4863 
L 1159 4863 
L 1159 2969 
z
" transform="scale(0.015625)"/>
     </defs>
     <use xlink:href="#DejaVuSans-64"/>
     <use xlink:href="#DejaVuSans-69" x="63.476562"/>
     <use xlink:href="#DejaVuSans-73" x="91.259766"/>
     <use xlink:href="#DejaVuSans-74" x="143.359375"/>
     <use xlink:href="#DejaVuSans-72" x="182.568359"/>
     <use xlink:href="#DejaVuSans-69" x="223.681641"/>
     <use xlink:href="#DejaVuSans-62" x="251.464844"/>
     <use xlink:href="#DejaVuSans-75" x="314.941406"/>
     <use xlink:href="#DejaVuSans-74" x="378.320312"/>
     <use xlink:href="#DejaVuSans-69" x="417.529297"/>
     <use xlink:href="#DejaVuSans-6f" x="445.3125"/>
     <use xlink:href="#DejaVuSans-6e" x="506.494141"/>
     <use xlink:href="#DejaVuSans-73" x="569.873047"/>
    </g>
   </g>
   <g id="text_19">
    <!-- contributions -->
    <g style="fill: #4c4c4c" transform="translate(272.205042 179.302039)rotate(-90)scale(0.12 -0.12)">
     <use xlink:href="#DejaVuSans-63"/>
     <use xlink:href="#DejaVuSans-6f" x="54.980469"/>
     <use xlink:href="#DejaVuSans-6e" x="116.162109"/>
     <use xlink:href="#DejaVuSans-74" x="179.541016"/>
     <use xlink:href="#DejaVuSans-72" x="218.75"/>
     <use xlink:href="#DejaVuSans-69" x="259.863281"/>
     <use xlink:href="#DejaVuSans-62" x="287.646484"/>
     <use xlink:href="#DejaVuSans-75" x="351.123047"/>
     <use xlink:href="#DejaVuSans-74" x="414.501953"/>
     <use xlink:href="#DejaVuSans-69" x="453.710938"/>
     <use xlink:href="#DejaVuSans-6f" x="481.494141"/>
     <use xlink:href="#DejaVuSans-6e" x="542.675781"/>
     <use xlink:href="#DejaVuSans-73" x="606.054688"/>
    </g>
   </g>
   <g id="text_20">
    <!-- cases -->
    <g style="fill: #4c4c4c" transform="translate(50.139983 141.83542)scale(0.12 -0.12)">
     <use xlink:href="#DejaVuSans-63"/>
     <use xlink:href="#DejaVuSans-61" x="54.980469"/>
     <use xlink:href="#DejaVuSans-73" x="116.259766"/>
     <use xlink:href="#DejaVuSans-65" x="168.359375"/>
     <use xlink:href="#DejaVuSans-73" x="229.882812"/>
    </g>
    <!-- epicurve -->
    <g style="fill: #4c4c4c" transform="translate(50.139983 155.272795)scale(0.12 -0.12)">
     <use xlink:href="#DejaVuSans-65"/>
     <use xlink:href="#DejaVuSans-70" x="61.523438"/>
     <use xlink:href="#DejaVuSans-69" x="125"/>
     <use xlink:href="#DejaVuSans-63" x="152.783203"/>
     <use xlink:href="#DejaVuSans-75" x="207.763672"/>
     <use xlink:href="#DejaVuSans-72" x="271.142578"/>
     <use xlink:href="#DejaVuSans-76" x="312.255859"/>
     <use xlink:href="#DejaVuSans-65" x="371.435547"/>
    </g>
   </g>
   <g id="text_21">
    <!-- secondary -->
    <g style="fill: #4c4c4c" transform="translate(332.905583 184.902659)scale(0.12 -0.12)">
     <use xlink:href="#DejaVuSans-73"/>
     <use xlink:href="#DejaVuSans-65" x="52.099609"/>
     <use xlink:href="#DejaVuSans-63" x="113.623047"/>
     <use xlink:href="#DejaVuSans-6f" x="168.603516"/>
     <use xlink:href="#DejaVuSans-6e" x="229.785156"/>
     <use xlink:href="#DejaVuSans-64" x="293.164062"/>
     <use xlink:href="#DejaVuSans-61" x="356.640625"/>
     <use xlink:href="#DejaVuSans-72" x="417.919922"/>
     <use xlink:href="#DejaVuSans-79" x="459.033203"/>
    </g>
    <!-- distributions -->
    <g style="fill: #4c4c4c" transform="translate(332.905583 198.340034)scale(0.12 -0.12)">
     <use xlink:href="#DejaVuSans-64"/>
     <use xlink:href="#DejaVuSans-69" x="63.476562"/>
     <use xlink:href="#DejaVuSans-73" x="91.259766"/>
     <use xlink:href="#DejaVuSans-74" x="143.359375"/>
     <use xlink:href="#DejaVuSans-72" x="182.568359"/>
     <use xlink:href="#DejaVuSans-69" x="223.681641"/>
     <use xlink:href="#DejaVuSans-62" x="251.464844"/>
     <use xlink:href="#DejaVuSans-75" x="314.941406"/>
     <use xlink:href="#DejaVuSans-74" x="378.320312"/>
     <use xlink:href="#DejaVuSans-69" x="417.529297"/>
     <use xlink:href="#DejaVuSans-6f" x="445.3125"/>
     <use xlink:href="#DejaVuSans-6e" x="506.494141"/>
     <use xlink:href="#DejaVuSans-73" x="569.873047"/>
    </g>
   </g>
   <g id="text_22">
    <!-- contributions -->
    <g style="fill: #4c4c4c" transform="translate(272.205042 179.302039)rotate(-90)scale(0.12 -0.12)">
     <use xlink:href="#DejaVuSans-63"/>
     <use xlink:href="#DejaVuSans-6f" x="54.980469"/>
     <use xlink:href="#DejaVuSans-6e" x="116.162109"/>
     <use xlink:href="#DejaVuSans-74" x="179.541016"/>
     <use xlink:href="#DejaVuSans-72" x="218.75"/>
     <use xlink:href="#DejaVuSans-69" x="259.863281"/>
     <use xlink:href="#DejaVuSans-62" x="287.646484"/>
     <use xlink:href="#DejaVuSans-75" x="351.123047"/>
     <use xlink:href="#DejaVuSans-74" x="414.501953"/>
     <use xlink:href="#DejaVuSans-69" x="453.710938"/>
     <use xlink:href="#DejaVuSans-6f" x="481.494141"/>
     <use xlink:href="#DejaVuSans-6e" x="542.675781"/>
     <use xlink:href="#DejaVuSans-73" x="606.054688"/>
    </g>
   </g>
   <g id="text_23">
    <!-- cases -->
    <g style="fill: #4c4c4c" transform="translate(50.139983 141.83542)scale(0.12 -0.12)">
     <use xlink:href="#DejaVuSans-63"/>
     <use xlink:href="#DejaVuSans-61" x="54.980469"/>
     <use xlink:href="#DejaVuSans-73" x="116.259766"/>
     <use xlink:href="#DejaVuSans-65" x="168.359375"/>
     <use xlink:href="#DejaVuSans-73" x="229.882812"/>
    </g>
    <!-- epicurve -->
    <g style="fill: #4c4c4c" transform="translate(50.139983 155.272795)scale(0.12 -0.12)">
     <use xlink:href="#DejaVuSans-65"/>
     <use xlink:href="#DejaVuSans-70" x="61.523438"/>
     <use xlink:href="#DejaVuSans-69" x="125"/>
     <use xlink:href="#DejaVuSans-63" x="152.783203"/>
     <use xlink:href="#DejaVuSans-75" x="207.763672"/>
     <use xlink:href="#DejaVuSans-72" x="271.142578"/>
     <use xlink:href="#DejaVuSans-76" x="312.255859"/>
     <use xlink:href="#DejaVuSans-65" x="371.435547"/>
    </g>
   </g>
   <g id="text_24">
    <!-- secondary -->
    <g style="fill: #4c4c4c" transform="translate(332.905583 184.902659)scale(0.12 -0.12)">
     <use xlink:href="#DejaVuSans-73"/>
     <use xlink:href="#DejaVuSans-65" x="52.099609"/>
     <use xlink:href="#DejaVuSans-63" x="113.623047"/>
     <use xlink:href="#DejaVuSans-6f" x="168.603516"/>
     <use xlink:href="#DejaVuSans-6e" x="229.785156"/>
     <use xlink:href="#DejaVuSans-64" x="293.164062"/>
     <use xlink:href="#DejaVuSans-61" x="356.640625"/>
     <use xlink:href="#DejaVuSans-72" x="417.919922"/>
     <use xlink:href="#DejaVuSans-79" x="459.033203"/>
    </g>
    <!-- distributions -->
    <g style="fill: #4c4c4c" transform="translate(332.905583 198.340034)scale(0.12 -0.12)">
     <use xlink:href="#DejaVuSans-64"/>
     <use xlink:href="#DejaVuSans-69" x="63.476562"/>
     <use xlink:href="#DejaVuSans-73" x="91.259766"/>
     <use xlink:href="#DejaVuSans-74" x="143.359375"/>
     <use xlink:href="#DejaVuSans-72" x="182.568359"/>
     <use xlink:href="#DejaVuSans-69" x="223.681641"/>
     <use xlink:href="#DejaVuSans-62" x="251.464844"/>
     <use xlink:href="#DejaVuSans-75" x="314.941406"/>
     <use xlink:href="#DejaVuSans-74" x="378.320312"/>
     <use xlink:href="#DejaVuSans-69" x="417.529297"/>
     <use xlink:href="#DejaVuSans-6f" x="445.3125"/>
     <use xlink:href="#DejaVuSans-6e" x="506.494141"/>
     <use xlink:href="#DejaVuSans-73" x="569.873047"/>
    </g>
   </g>
   <g id="text_25">
    <!-- contributions -->
    <g style="fill: #4c4c4c" transform="translate(272.205042 179.302039)rotate(-90)scale(0.12 -0.12)">
     <use xlink:href="#DejaVuSans-63"/>
     <use xlink:href="#DejaVuSans-6f" x="54.980469"/>
     <use xlink:href="#DejaVuSans-6e" x="116.162109"/>
     <use xlink:href="#DejaVuSans-74" x="179.541016"/>
     <use xlink:href="#DejaVuSans-72" x="218.75"/>
     <use xlink:href="#DejaVuSans-69" x="259.863281"/>
     <use xlink:href="#DejaVuSans-62" x="287.646484"/>
     <use xlink:href="#DejaVuSans-75" x="351.123047"/>
     <use xlink:href="#DejaVuSans-74" x="414.501953"/>
     <use xlink:href="#DejaVuSans-69" x="453.710938"/>
     <use xlink:href="#DejaVuSans-6f" x="481.494141"/>
     <use xlink:href="#DejaVuSans-6e" x="542.675781"/>
     <use xlink:href="#DejaVuSans-73" x="606.054688"/>
    </g>
   </g>
  </g>
 </g>
 <defs>
  <clipPath id="pdae9414633">
   <rect x="36.17625" y="7.2" width="523.64" height="245.36"/>
  </clipPath>
 </defs>
</svg>
